<?xml version="1.0" encoding="UTF-8"?>
<svg version="1.1" xmlns="http://www.w3.org/2000/svg" width="1000" height="1000">
<path d="M0 0 C16.67008156 12.40380476 24.33205212 30.79300048 27.47265625 50.83984375 C31.15246152 76.86994169 24.3332407 102.82615498 9.16015625 124.08984375 C-0.01763093 135.81701626 -12.3571617 145.67267489 -27.52734375 147.83984375 C-39.42317531 148.52438649 -48.44872969 147.27645416 -58.52734375 140.83984375 C-59.53087891 140.22689453 -59.53087891 140.22689453 -60.5546875 139.6015625 C-74.27741947 130.38966916 -82.03286355 113.01385853 -85.44677734 97.31054688 C-90.42333502 70.02824449 -85.41371135 41.56068283 -69.78662109 18.59179688 C-61.28544254 6.76464346 -49.59256178 -3.14385174 -35.18359375 -6.74609375 C-22.62354054 -8.7039844 -10.70189653 -6.93672849 0 0 Z " fill="#FFFFFF" transform="translate(679.52734375,29.16015625)"/>
<path d="M0 0 C0.65355469 0.41378906 1.30710937 0.82757813 1.98046875 1.25390625 C3.00720703 1.89005859 3.00720703 1.89005859 4.0546875 2.5390625 C14.79109356 9.88071922 20.95813414 21.2966772 23.58569336 33.8359375 C26.12564683 49.39295614 23.85353285 65.04748526 14.98046875 78.25390625 C10.32878501 84.66488064 3.49523877 89.55612347 -4.20703125 91.69140625 C-14.2082467 93.16699541 -21.2828047 91.29099678 -30.20703125 86.56640625 C-41.64534331 77.16157189 -48.02985981 64.88867966 -50.01953125 50.25390625 C-51.27246313 35.00216751 -48.90653404 20.50168317 -39.01953125 8.25390625 C-29.04879408 -2.63251086 -13.73271015 -7.39453624 0 0 Z " fill="#FFFFFF" transform="translate(545.01953125,70.74609375)"/>
<path d="M0 0 C10.60144218 7.29881222 17.44685094 18.94059268 20.5859375 31.30859375 C22.5379709 43.99681084 21.35652963 56.29490549 13.81640625 66.953125 C9.33425773 72.00397623 3.54042958 75.74104772 -3.2578125 76.23828125 C-10.98163733 76.38651627 -17.32636136 76.29201569 -24 72 C-24.75796875 71.51402344 -25.5159375 71.02804687 -26.296875 70.52734375 C-36.73160319 63.121488 -43.51757069 51.33999883 -46.3125 38.9375 C-48.12152338 27.89202072 -47.29990608 16.72042247 -41.1875 7.0625 C-30.77542954 -7.08461294 -14.94224047 -8.48520581 0 0 Z " fill="#FFFFFF" transform="translate(382,194)"/>
<path d="M0 0 C10.60144218 7.29881222 17.44685094 18.94059268 20.5859375 31.30859375 C22.5379709 43.99681084 21.35652963 56.29490549 13.81640625 66.953125 C9.33425773 72.00397623 3.54042958 75.74104772 -3.2578125 76.23828125 C-10.98163733 76.38651627 -17.32636136 76.29201569 -24 72 C-24.75796875 71.51402344 -25.5159375 71.02804688 -26.296875 70.52734375 C-36.73160319 63.121488 -43.51757069 51.33999883 -46.3125 38.9375 C-48.12152338 27.89202072 -47.29990608 16.72042247 -41.1875 7.0625 C-30.77542954 -7.08461294 -14.94224047 -8.48520581 0 0 Z " fill="#FFFFFF" transform="translate(456,129)"/>
<path d="M0 0 C9.53188075 6.69656593 16.62189139 15.80089782 19.421875 27.21484375 C20.75039646 35.80326529 20.37042043 44.31431598 15.484375 51.72265625 C11.64096503 56.54457217 7.02859136 59.80013822 0.80859375 60.71484375 C-8.7070487 61.57990215 -17.93272613 58.83837726 -25.56640625 53.08984375 C-34.30490392 45.41528654 -40.46098996 35.68302149 -41.53515625 23.96484375 C-41.75521447 14.72239856 -41.31673509 7.86375089 -35.00390625 0.90234375 C-24.77630799 -8.46938854 -11.32300937 -6.64041013 0 0 Z " fill="#FFFFFF" transform="translate(332.19140625,274.28515625)"/>
<path d="M0 0 C7.47343742 7.67010682 8.64612191 17.04357411 8.61938477 27.2734375 C8.46007271 36.41982351 6.56661548 42.84592933 0.38671875 49.74609375 C-5.48811976 54.68552108 -10.86643046 54.9682762 -18.27734375 54.78125 C-24.36381551 54.15626807 -27.68333435 51.62479667 -31.875 47.25 C-37.04019896 40.65823978 -38.16669128 33.18443353 -38.0625 25 C-38.05565186 24.16960205 -38.04880371 23.3392041 -38.04174805 22.48364258 C-37.79815571 13.17330618 -35.25972456 6.07222456 -28.625 -0.5625 C-19.38098112 -7.10095238 -9.2357891 -5.49749351 0 0 Z M-23.625 12.4375 C-24.98733092 16.52449276 -24.88850956 20.34323539 -24.9375 24.625 C-24.96650391 25.45064453 -24.99550781 26.27628906 -25.02539062 27.12695312 C-25.08533575 32.97851972 -24.10445603 37.62470526 -20.625 42.4375 C-17.10675489 44.78299674 -15.76724306 45.01741403 -11.625 44.4375 C-7.93174248 41.49968152 -5.99155045 38.91371191 -4.625 34.4375 C-4.31829007 31.47471136 -4.30028065 28.53913439 -4.3125 25.5625 C-4.29638672 24.78519531 -4.28027344 24.00789062 -4.26367188 23.20703125 C-4.25851574 17.0712291 -5.58088166 12.77264045 -8.8125 7.5 C-15.63660942 3.49966 -19.95658145 6.76812588 -23.625 12.4375 Z " fill="#FFFFFF" transform="translate(575.625,642.5625)"/>
<path d="M0 0 C5.98398409 3.68722671 9.76285517 9.29875887 11.44921875 16.0546875 C12.94181396 26.74489647 13.77348935 39.1946468 7.3359375 48.36328125 C3.17380622 53.48307106 -0.75906158 56.73219761 -7.51953125 57.59375 C-16.64866105 57.60383744 -21.11903901 56.97234434 -27.8046875 50.59765625 C-34.6894184 41.38761888 -35.4092042 30.22253926 -34.1171875 19.16015625 C-32.6446668 12.45900591 -30.21390011 6.80382774 -25.1171875 2.16015625 C-17.41100558 -2.71736763 -8.44853222 -3.67699277 0 0 Z M-20.1171875 15.16015625 C-22.43884369 22.55928556 -22.4113499 33.65155451 -19.8671875 41.03515625 C-17.72551504 44.90463988 -17.72551504 44.90463988 -14.1171875 47.16015625 C-10.35947301 47.71981585 -8.65366227 47.47716407 -5.3671875 45.53515625 C-0.43871652 40.33288133 -0.18106001 33.05838734 -0.1171875 26.16015625 C-0.66577261 20.9316661 -1.32058471 15.7034092 -4.1171875 11.16015625 C-7.29684498 9.0403846 -9.31590445 8.62311132 -13.11328125 8.70703125 C-16.89602162 9.56238775 -18.09273905 11.97011627 -20.1171875 15.16015625 Z " fill="#FFFFFF" transform="translate(403.1171875,545.83984375)"/>
<path d="M0 0 C6.81406283 5.06571776 10.06217573 11.44120279 11.28515625 19.74609375 C12.37710477 31.01040481 11.41182296 41.17724753 4.4921875 50.4765625 C0.70391802 54.56754757 -2.82786642 56.03994598 -8.33984375 56.6953125 C-15.06912145 56.95203639 -20.83903118 56.64764575 -26.21875 52.32421875 C-33.51624609 45.39326356 -35.29043938 36.00557238 -35.59375 26.26171875 C-35.26224136 16.49496429 -33.29324918 9.21876511 -26.31640625 2.140625 C-18.98730544 -4.20580308 -8.35123833 -4.87726009 0 0 Z M-18.03125 10.38671875 C-23.30618323 17.47020051 -22.99467274 25.77960615 -22.21875 34.32421875 C-20.65720493 40.84551845 -20.65720493 40.84551845 -16.296875 45.59375 C-12.95836944 46.76724725 -10.59231758 46.22785292 -7.21875 45.32421875 C-2.72810355 41.19767877 -1.46863951 36.42810955 -0.99609375 30.55859375 C-0.80082167 23.93632334 -1.16514362 17.32888503 -4.21875 11.32421875 C-6.86641521 8.88399948 -8.00788249 8.35489039 -11.65625 7.82421875 C-15.31089586 8.05044698 -15.31089586 8.05044698 -18.03125 10.38671875 Z " fill="#FFFFFF" transform="translate(442.21875,640.67578125)"/>
<path d="M0 0 C6.81406283 5.06571776 10.06217573 11.44120279 11.28515625 19.74609375 C12.37710477 31.01040481 11.41182296 41.17724753 4.4921875 50.4765625 C0.70391802 54.56754757 -2.82786642 56.03994598 -8.33984375 56.6953125 C-15.06912145 56.95203639 -20.83903118 56.64764575 -26.21875 52.32421875 C-33.51624609 45.39326356 -35.29043938 36.00557238 -35.59375 26.26171875 C-35.26224136 16.49496429 -33.29324918 9.21876511 -26.31640625 2.140625 C-18.98730544 -4.20580308 -8.35123833 -4.87726009 0 0 Z M-18.03125 10.38671875 C-23.30618323 17.47020051 -22.99467274 25.77960615 -22.21875 34.32421875 C-20.65720493 40.84551845 -20.65720493 40.84551845 -16.296875 45.59375 C-12.95836944 46.76724725 -10.59231758 46.22785292 -7.21875 45.32421875 C-2.72810355 41.19767877 -1.46863951 36.42810955 -0.99609375 30.55859375 C-0.80082167 23.93632334 -1.16514362 17.32888503 -4.21875 11.32421875 C-6.86641521 8.88399948 -8.00788249 8.35489039 -11.65625 7.82421875 C-15.31089586 8.05044698 -15.31089586 8.05044698 -18.03125 10.38671875 Z " fill="#FFFFFF" transform="translate(442.21875,358.67578125)"/>
<path d="M0 0 C6.81406283 5.06571776 10.06217573 11.44120279 11.28515625 19.74609375 C12.37710477 31.01040481 11.41182296 41.17724753 4.4921875 50.4765625 C0.70391802 54.56754757 -2.82786642 56.03994598 -8.33984375 56.6953125 C-15.06912145 56.95203639 -20.83903118 56.64764575 -26.21875 52.32421875 C-33.51624609 45.39326356 -35.29043938 36.00557238 -35.59375 26.26171875 C-35.26224136 16.49496429 -33.29324918 9.21876511 -26.31640625 2.140625 C-18.98730544 -4.20580308 -8.35123833 -4.87726009 0 0 Z M-18.03125 10.38671875 C-23.33635403 17.51071559 -22.87170516 25.73686901 -22.21875 34.32421875 C-21.24016628 38.74795338 -19.7420312 42.35814747 -16.21875 45.32421875 C-12.26994135 46.42111004 -10.17805943 46.80387346 -6.46875 44.94921875 C-1.33561262 38.96055847 -0.71362141 32.01219849 -0.9296875 24.33203125 C-1.43779902 19.04492485 -2.06141759 13.31252305 -6.11328125 9.578125 C-10.45746857 6.99095593 -14.05563678 7.47126906 -18.03125 10.38671875 Z " fill="#FFFFFF" transform="translate(642.21875,921.67578125)"/>
<path d="M0 0 C6.68685812 4.88334867 9.80893237 10.13091798 11.44921875 18.23046875 C12.92015147 28.89804385 12.40600292 39.65723157 6.1953125 48.8125 C2.08524564 53.69445747 -1.88002449 55.98605426 -8.23828125 56.75 C-14.8649131 56.99514707 -20.90362248 56.82850087 -26.1171875 52.375 C-34.04420805 43.02927332 -35.73080411 32.31789388 -34.90625 20.30078125 C-33.77513657 12.64975928 -30.95263349 6.71231869 -25.1796875 1.5 C-17.62824126 -3.73977903 -8.09458156 -4.71910828 0 0 Z M-20.1171875 13.375 C-23.49979186 22.71743108 -23.30282557 33.29771263 -19.1171875 42.375 C-17.06837619 45.20028576 -17.06837619 45.20028576 -14.1171875 46.375 C-10.23475244 46.375 -7.99188943 45.98965541 -4.8046875 43.75 C0.18131606 36.73266166 -0.53189095 27.57801986 -1.1171875 19.375 C-2.06752484 14.96829877 -3.54646241 11.27248575 -7.1171875 8.375 C-13.36724776 7.56854061 -16.2791373 7.95657619 -20.1171875 13.375 Z " fill="#FFFFFF" transform="translate(534.1171875,827.625)"/>
<path d="M0 0 C6.81406283 5.06571776 10.06217573 11.44120279 11.28515625 19.74609375 C12.37710477 31.01040481 11.41182296 41.17724753 4.4921875 50.4765625 C0.70391802 54.56754757 -2.82786642 56.03994598 -8.33984375 56.6953125 C-15.06912145 56.95203639 -20.83903118 56.64764575 -26.21875 52.32421875 C-33.51624609 45.39326356 -35.29043938 36.00557238 -35.59375 26.26171875 C-35.26224136 16.49496429 -33.29324918 9.21876511 -26.31640625 2.140625 C-18.98730544 -4.20580308 -8.35123833 -4.87726009 0 0 Z M-18.03125 10.38671875 C-23.33635403 17.51071559 -22.87170516 25.73686901 -22.21875 34.32421875 C-21.24016628 38.74795338 -19.7420312 42.35814747 -16.21875 45.32421875 C-12.26994135 46.42111004 -10.17805943 46.80387346 -6.46875 44.94921875 C-1.33561262 38.96055847 -0.71362141 32.01219849 -0.9296875 24.33203125 C-1.43779902 19.04492485 -2.06141759 13.31252305 -6.11328125 9.578125 C-10.45746857 6.99095593 -14.05563678 7.47126906 -18.03125 10.38671875 Z " fill="#FFFFFF" transform="translate(642.21875,452.67578125)"/>
<path d="M0 0 C6.87247057 4.01363548 10.60243065 9.89079377 12.6875 17.4375 C15.0796454 27.44101712 14.23036656 38.66080196 9.43359375 47.8359375 C6.13560635 52.67058933 2.40875095 55.94904447 -3.3125 57.4375 C-9.97735894 58.23828405 -16.67404571 58.41282706 -22.59765625 54.90625 C-29.2713904 49.19024991 -32.45925847 40.96991534 -33.3125 32.4375 C-33.92165345 22.52491208 -32.71503544 13.335133 -26.3125 5.4375 C-19.29501708 -1.8200547 -9.4055392 -4.21440507 0 0 Z M-16.125 11.5 C-21.25228149 18.38520657 -20.95542256 26.12973501 -20.3125 34.4375 C-19.44186786 39.13755317 -18.18413219 42.42059578 -15.0625 46.0625 C-11.29228361 47.94760819 -9.30942067 47.67291184 -5.3125 46.4375 C-0.72040401 42.21773612 0.46895085 37.40516736 0.91015625 31.4140625 C1.11178122 23.89257447 1.01287341 16.3566901 -4.0625 10.375 C-8.71679827 8.43570905 -12.04163693 8.50553375 -16.125 11.5 Z " fill="#FFFFFF" transform="translate(586.3125,357.5625)"/>
<path d="M0 0 C6.68685812 4.88334867 9.80893237 10.13091798 11.44921875 18.23046875 C12.92015147 28.89804385 12.40600292 39.65723157 6.1953125 48.8125 C2.08524564 53.69445747 -1.88002449 55.98605426 -8.23828125 56.75 C-14.8649131 56.99514707 -20.90362248 56.82850087 -26.1171875 52.375 C-34.04420805 43.02927332 -35.73080411 32.31789388 -34.90625 20.30078125 C-33.77513657 12.64975928 -30.95263349 6.71231869 -25.1796875 1.5 C-17.62824126 -3.73977903 -8.09458156 -4.71910828 0 0 Z M-20.1171875 13.375 C-23.49979186 22.71743108 -23.30282557 33.29771263 -19.1171875 42.375 C-17.06837619 45.20028576 -17.06837619 45.20028576 -14.1171875 46.375 C-10.23475244 46.375 -7.99188943 45.98965541 -4.8046875 43.75 C0.18131606 36.73266166 -0.53189095 27.57801986 -1.1171875 19.375 C-2.06752484 14.96829877 -3.54646241 11.27248575 -7.1171875 8.375 C-13.36724776 7.56854061 -16.2791373 7.95657619 -20.1171875 13.375 Z " fill="#FFFFFF" transform="translate(534.1171875,358.625)"/>
<path d="M0 0 C6.87247057 4.01363548 10.60243065 9.89079377 12.6875 17.4375 C15.0796454 27.44101712 14.23036656 38.66080196 9.43359375 47.8359375 C6.13560635 52.67058933 2.40875095 55.94904447 -3.3125 57.4375 C-9.97735894 58.23828405 -16.67404571 58.41282706 -22.59765625 54.90625 C-29.2713904 49.19024991 -32.45925847 40.96991534 -33.3125 32.4375 C-33.92165345 22.52491208 -32.71503544 13.335133 -26.3125 5.4375 C-19.29501708 -1.8200547 -9.4055392 -4.21440507 0 0 Z M-16.125 11.5 C-21.25228149 18.38520657 -20.95542256 26.12973501 -20.3125 34.4375 C-19.44186786 39.13755317 -18.18413219 42.42059578 -15.0625 46.0625 C-11.29228361 47.94760819 -9.30942067 47.67291184 -5.3125 46.4375 C-0.72040401 42.21773612 0.46895085 37.40516736 0.91015625 31.4140625 C1.11178122 23.89257447 1.01287341 16.3566901 -4.0625 10.375 C-8.71679827 8.43570905 -12.04163693 8.50553375 -16.125 11.5 Z " fill="#FFFFFF" transform="translate(586.3125,263.5625)"/>
<path d="M0 0 C5.81567696 3.59558451 9.57883946 9.09700763 11.38671875 15.62109375 C13.81120711 28.04898291 13.55953086 39.24255867 6.53515625 50.0625 C3.55601224 53.85157678 0.46922019 55.63525994 -4.1171875 57.1640625 C-11.72791761 57.79915763 -18.9339072 58.14739115 -25.1171875 53.1640625 C-32.24442574 46.24836329 -34.19355242 37.44651361 -34.5546875 27.7890625 C-34.34577967 19.8220776 -32.69589297 11.18819368 -27.9296875 4.6015625 C-19.9703528 -2.29652758 -9.82639646 -4.25677903 0 0 Z M-17.4921875 11.2890625 C-22.06374606 19.37720457 -22.43075304 28.74964394 -20.58203125 37.77734375 C-19.236989 41.68017127 -17.53988195 44.81707202 -14.1171875 47.1640625 C-10.5042102 47.77903736 -8.69022806 47.45724604 -5.4296875 45.7890625 C-0.50278858 40.19636643 0.37552539 32.87720403 0.1015625 25.6171875 C-0.39354323 20.06493043 -1.01930259 15.7463084 -4.2421875 11.1015625 C-8.782173 8.04200705 -13.11026379 7.36839391 -17.4921875 11.2890625 Z " fill="#FFFFFF" transform="translate(495.1171875,920.8359375)"/>
<path d="M0 0 C5.81567696 3.59558451 9.57883946 9.09700763 11.38671875 15.62109375 C13.81120711 28.04898291 13.55953086 39.24255867 6.53515625 50.0625 C3.55601224 53.85157678 0.46922019 55.63525994 -4.1171875 57.1640625 C-11.72791761 57.79915763 -18.9339072 58.14739115 -25.1171875 53.1640625 C-32.24442574 46.24836329 -34.19355242 37.44651361 -34.5546875 27.7890625 C-34.34577967 19.8220776 -32.69589297 11.18819368 -27.9296875 4.6015625 C-19.9703528 -2.29652758 -9.82639646 -4.25677903 0 0 Z M-17.4921875 11.2890625 C-22.06374606 19.37720457 -22.43075304 28.74964394 -20.58203125 37.77734375 C-19.236989 41.68017127 -17.53988195 44.81707202 -14.1171875 47.1640625 C-10.5042102 47.77903736 -8.69022806 47.45724604 -5.4296875 45.7890625 C-0.50278858 40.19636643 0.37552539 32.87720403 0.1015625 25.6171875 C-0.39354323 20.06493043 -1.01930259 15.7463084 -4.2421875 11.1015625 C-8.782173 8.04200705 -13.11026379 7.36839391 -17.4921875 11.2890625 Z " fill="#FFFFFF" transform="translate(495.1171875,545.8359375)"/>
<path d="M0 0 C5.81567696 3.59558451 9.57883946 9.09700763 11.38671875 15.62109375 C13.81120711 28.04898291 13.55953086 39.24255867 6.53515625 50.0625 C3.55601224 53.85157678 0.46922019 55.63525994 -4.1171875 57.1640625 C-11.72791761 57.79915763 -18.9339072 58.14739115 -25.1171875 53.1640625 C-32.24442574 46.24836329 -34.19355242 37.44651361 -34.5546875 27.7890625 C-34.34577967 19.8220776 -32.69589297 11.18819368 -27.9296875 4.6015625 C-19.9703528 -2.29652758 -9.82639646 -4.25677903 0 0 Z M-17.4921875 11.2890625 C-22.06374606 19.37720457 -22.43075304 28.74964394 -20.58203125 37.77734375 C-19.236989 41.68017127 -17.53988195 44.81707202 -14.1171875 47.1640625 C-10.5042102 47.77903736 -8.69022806 47.45724604 -5.4296875 45.7890625 C-0.50278858 40.19636643 0.37552539 32.87720403 0.1015625 25.6171875 C-0.39354323 20.06493043 -1.01930259 15.7463084 -4.2421875 11.1015625 C-8.782173 8.04200705 -13.11026379 7.36839391 -17.4921875 11.2890625 Z " fill="#FFFFFF" transform="translate(495.1171875,263.8359375)"/>
<path d="M0 0 C6.86395146 4.24368783 10.07013233 10.53013684 11.8828125 18.1640625 C12.29124363 21.49009664 12.36179856 24.75309036 12.3203125 28.1015625 C12.31056396 28.98038086 12.30081543 29.85919922 12.29077148 30.76464844 C12.07635837 38.59399779 11.19539437 44.59436688 5.71875 50.49609375 C-0.94220832 56.69056802 -5.54723706 57.59862167 -14.59765625 57.49609375 C-20.68634913 56.92168876 -23.96736688 54.69950116 -27.859375 50.109375 C-34.95985787 40.29100395 -35.53259536 29.02522936 -33.65234375 17.25390625 C-31.91907666 10.61826244 -28.85817731 4.70105559 -23.078125 0.78125 C-15.78150392 -2.90573521 -7.54627225 -3.26903292 0 0 Z M-17.4921875 10.7890625 C-21.0996823 16.06155491 -21.4761695 21.35832397 -21.4296875 27.5390625 C-21.42549805 28.29203613 -21.42130859 29.04500977 -21.41699219 29.82080078 C-21.2881126 36.13727173 -20.73609323 41.27423549 -16.3046875 46.1640625 C-13.30497729 47.5353586 -11.38486814 47.63087402 -8.1171875 47.1640625 C-4.17047498 44.74221618 -2.38409779 42.59824853 -1.1171875 38.1640625 C0.83984348 29.35742309 0.44984203 20.29812155 -3.6171875 12.1640625 C-4.9681163 10.0522591 -4.9681163 10.0522591 -7.1171875 9.1640625 C-12.65884362 8.58318838 -12.65884362 8.58318838 -17.4921875 10.7890625 Z " fill="#FFFFFF" transform="translate(549.1171875,920.8359375)"/>
<path d="M0 0 C6.86493356 4.24429502 10.06413337 10.53094801 11.8828125 18.1640625 C12.26473466 21.34641824 12.30482454 24.46202025 12.2578125 27.6640625 C12.26941406 28.45425781 12.28101563 29.24445312 12.29296875 30.05859375 C12.25609575 37.56839548 10.7827312 44.8593235 5.5703125 50.5390625 C5.01730469 51.16554688 4.46429687 51.79203125 3.89453125 52.4375 C-1.89188112 57.40370246 -7.33776636 57.74501487 -14.6953125 57.58203125 C-20.8341224 56.83219945 -24.22830361 54.10399731 -28.4296875 49.7890625 C-34.75550021 39.94890939 -35.44665313 28.59152258 -33.65625 17.2421875 C-31.9061654 10.61245527 -28.85872121 4.70142444 -23.078125 0.78125 C-15.78150392 -2.90573521 -7.54627225 -3.26903292 0 0 Z M-18.0546875 11.9140625 C-22.78141897 19.36224542 -22.20804527 30.43705921 -20.5859375 38.953125 C-19.60499153 41.8000008 -18.32376332 43.93611677 -16.3046875 46.1640625 C-13.30497729 47.5353586 -11.38486814 47.63087402 -8.1171875 47.1640625 C-4.0887196 44.6920481 -2.5766596 42.58022377 -1.1171875 38.1640625 C0.34806886 29.14800925 0.4578399 20.42141012 -3.6171875 12.1015625 C-4.98006376 10.05201078 -4.98006376 10.05201078 -7.1171875 9.1640625 C-13.33498418 8.36780328 -13.33498418 8.36780328 -18.0546875 11.9140625 Z " fill="#FFFFFF" transform="translate(664.1171875,826.8359375)"/>
<path d="M0 0 C6.86395146 4.24368783 10.07013233 10.53013684 11.8828125 18.1640625 C12.29124363 21.49009664 12.36179856 24.75309036 12.3203125 28.1015625 C12.31056396 28.98038086 12.30081543 29.85919922 12.29077148 30.76464844 C12.07635837 38.59399779 11.19539437 44.59436688 5.71875 50.49609375 C-0.94220832 56.69056802 -5.54723706 57.59862167 -14.59765625 57.49609375 C-20.68634913 56.92168876 -23.96736688 54.69950116 -27.859375 50.109375 C-34.95985787 40.29100395 -35.53259536 29.02522936 -33.65234375 17.25390625 C-31.91907666 10.61826244 -28.85817731 4.70105559 -23.078125 0.78125 C-15.78150392 -2.90573521 -7.54627225 -3.26903292 0 0 Z M-17.4921875 10.7890625 C-21.0996823 16.06155491 -21.4761695 21.35832397 -21.4296875 27.5390625 C-21.42549805 28.29203613 -21.42130859 29.04500977 -21.41699219 29.82080078 C-21.2881126 36.13727173 -20.73609323 41.27423549 -16.3046875 46.1640625 C-13.30497729 47.5353586 -11.38486814 47.63087402 -8.1171875 47.1640625 C-4.17047498 44.74221618 -2.38409779 42.59824853 -1.1171875 38.1640625 C0.83984348 29.35742309 0.44984203 20.29812155 -3.6171875 12.1640625 C-4.9681163 10.0522591 -4.9681163 10.0522591 -7.1171875 9.1640625 C-12.65884362 8.58318838 -12.65884362 8.58318838 -17.4921875 10.7890625 Z " fill="#FFFFFF" transform="translate(549.1171875,733.8359375)"/>
<path d="M0 0 C6.86395146 4.24368783 10.07013233 10.53013684 11.8828125 18.1640625 C12.29124363 21.49009664 12.36179856 24.75309036 12.3203125 28.1015625 C12.31056396 28.98038086 12.30081543 29.85919922 12.29077148 30.76464844 C12.07635837 38.59399779 11.19539437 44.59436688 5.71875 50.49609375 C-0.94220832 56.69056802 -5.54723706 57.59862167 -14.59765625 57.49609375 C-20.68634913 56.92168876 -23.96736688 54.69950116 -27.859375 50.109375 C-34.95985787 40.29100395 -35.53259536 29.02522936 -33.65234375 17.25390625 C-31.91907666 10.61826244 -28.85817731 4.70105559 -23.078125 0.78125 C-15.78150392 -2.90573521 -7.54627225 -3.26903292 0 0 Z M-17.4921875 10.7890625 C-21.0996823 16.06155491 -21.4761695 21.35832397 -21.4296875 27.5390625 C-21.42549805 28.29203613 -21.42130859 29.04500977 -21.41699219 29.82080078 C-21.2881126 36.13727173 -20.73609323 41.27423549 -16.3046875 46.1640625 C-13.30497729 47.5353586 -11.38486814 47.63087402 -8.1171875 47.1640625 C-4.17047498 44.74221618 -2.38409779 42.59824853 -1.1171875 38.1640625 C0.83984348 29.35742309 0.44984203 20.29812155 -3.6171875 12.1640625 C-4.9681163 10.0522591 -4.9681163 10.0522591 -7.1171875 9.1640625 C-12.65884362 8.58318838 -12.65884362 8.58318838 -17.4921875 10.7890625 Z " fill="#FFFFFF" transform="translate(549.1171875,545.8359375)"/>
<path d="M0 0 C6.86395146 4.24368783 10.07013233 10.53013684 11.8828125 18.1640625 C12.29124363 21.49009664 12.36179856 24.75309036 12.3203125 28.1015625 C12.31056396 28.98038086 12.30081543 29.85919922 12.29077148 30.76464844 C12.07635837 38.59399779 11.19539437 44.59436688 5.71875 50.49609375 C-0.94220832 56.69056802 -5.54723706 57.59862167 -14.59765625 57.49609375 C-20.68634913 56.92168876 -23.96736688 54.69950116 -27.859375 50.109375 C-34.95985787 40.29100395 -35.53259536 29.02522936 -33.65234375 17.25390625 C-31.91907666 10.61826244 -28.85817731 4.70105559 -23.078125 0.78125 C-15.78150392 -2.90573521 -7.54627225 -3.26903292 0 0 Z M-17.4921875 10.7890625 C-21.0996823 16.06155491 -21.4761695 21.35832397 -21.4296875 27.5390625 C-21.42549805 28.29203613 -21.42130859 29.04500977 -21.41699219 29.82080078 C-21.2881126 36.13727173 -20.73609323 41.27423549 -16.3046875 46.1640625 C-13.30497729 47.5353586 -11.38486814 47.63087402 -8.1171875 47.1640625 C-4.17047498 44.74221618 -2.38409779 42.59824853 -1.1171875 38.1640625 C0.83984348 29.35742309 0.44984203 20.29812155 -3.6171875 12.1640625 C-4.9681163 10.0522591 -4.9681163 10.0522591 -7.1171875 9.1640625 C-12.65884362 8.58318838 -12.65884362 8.58318838 -17.4921875 10.7890625 Z " fill="#FFFFFF" transform="translate(549.1171875,451.8359375)"/>
<path d="M0 0 C6.55389478 4.4194846 8.98186133 10.71369089 10.5703125 18.23046875 C12.15489481 28.86037508 11.53798041 39.69301202 5.3515625 48.8125 C1.24149564 53.69445747 -2.72377449 55.98605426 -9.08203125 56.75 C-15.7086631 56.99514707 -21.74737248 56.82850087 -26.9609375 52.375 C-34.59229439 43.37785216 -36.66537608 32.98480491 -35.71484375 21.3671875 C-34.35675874 12.73793936 -31.75429125 6.02104477 -24.73828125 0.5625 C-17.33423894 -4.38437662 -7.7476307 -3.94225732 0 0 Z M-20.9609375 13.375 C-24.33832925 22.70303435 -24.16310205 33.31513323 -19.9609375 42.375 C-17.30519464 45.38962703 -15.88228788 46.2022468 -11.9609375 46.9375 C-7.83698267 46.16425847 -6.49373671 44.68171008 -3.9609375 41.375 C-1.07453936 33.08791963 -0.31240626 23.02497811 -3.2734375 14.625 C-4.73033688 11.81911971 -5.5757744 10.31045454 -7.9609375 8.375 C-14.21099776 7.56854061 -17.1228873 7.95657619 -20.9609375 13.375 Z " fill="#FFFFFF" transform="translate(419.9609375,452.625)"/>
<path d="M0 0 C3.00342657 2.25076063 4.95793932 4.88853489 6.62109375 8.21484375 C6.82948656 9.79714578 6.98861717 11.38610432 7.12109375 12.9765625 C7.20359375 13.93111328 7.28609375 14.88566406 7.37109375 15.86914062 C7.45359375 16.87009766 7.53609375 17.87105469 7.62109375 18.90234375 C7.78602183 20.86473023 7.95265159 22.82697453 8.12109375 24.7890625 C8.20093506 25.72476074 8.28077637 26.66045898 8.36303711 27.62451172 C8.58034175 29.80578158 8.90325419 31.97615582 9.25 34.140625 C9.89236663 39.46212541 8.20633916 43.79967574 5.29296875 48.23828125 C1.18608394 53.36107967 -3.1112595 55.99020563 -9.62890625 57.08984375 C-16.02413414 57.61917849 -21.69083118 55.76795379 -27.19140625 52.58984375 C-34.3155967 44.8550084 -35.58603815 37.13565648 -35.69140625 27.02734375 C-35.72041016 26.11919922 -35.74941406 25.21105469 -35.77929688 24.27539062 C-35.86230689 15.355007 -33.11859364 8.20831215 -26.9921875 1.65625 C-19.73558683 -4.82725036 -8.17832968 -4.7777768 0 0 Z M-19.25390625 11.02734375 C-22.71285974 16.21577399 -22.62256942 20.38600468 -22.69140625 26.40234375 C-22.72041016 27.22798828 -22.74941406 28.05363281 -22.77929688 28.90429688 C-22.839242 34.75586347 -21.85836228 39.40204901 -18.37890625 44.21484375 C-15.502424 46.55468817 -15.502424 46.55468817 -11.94140625 46.08984375 C-8.0109944 45.12447944 -6.73597533 44.44490138 -4.37890625 41.21484375 C-2.48029471 36.5775875 -2.0264959 32.29987796 -2.06640625 27.33984375 C-2.0705957 26.63384033 -2.07478516 25.92783691 -2.07910156 25.20043945 C-2.21535253 18.92347311 -2.8849547 14.0650741 -7.12890625 9.21484375 C-11.88026795 7.10312744 -15.79046817 6.99168547 -19.25390625 11.02734375 Z " fill="#FFFFFF" transform="translate(627.37890625,640.78515625)"/>
<path d="M0 0 C3.14374651 2.27284376 4.77482794 3.79203978 6.734375 7.25390625 C6.55029297 9.22314453 6.55029297 9.22314453 5.9765625 11.38671875 C5.77659668 12.18005615 5.57663086 12.97339355 5.37060547 13.79077148 C5.16064941 14.60360596 4.95069336 15.41644043 4.734375 16.25390625 C4.39393448 17.78750205 4.06046827 19.32266455 3.734375 20.859375 C3.40104167 22.38671875 3.06770833 23.9140625 2.734375 25.44140625 C2.569375 26.20904297 2.404375 26.97667969 2.234375 27.76757812 C1.51618249 31.04152599 0.76088781 34.17660972 -0.328125 37.3515625 C-1.78899477 41.87417182 -2.14721628 46.501661 -2.703125 51.20703125 C-3.265625 54.25390625 -3.265625 54.25390625 -5.265625 56.25390625 C-11.94211358 57.65948279 -18.1603371 57.61506382 -24.21484375 54.1328125 C-30.47540022 49.33893737 -34.14414783 41.98981001 -35.265625 34.25390625 C-35.94544294 22.81466212 -35.64014494 12.16087886 -28.05078125 2.94921875 C-20.55310505 -4.17111269 -8.84422335 -5.24440517 0 0 Z M-18.078125 10.25390625 C-23.01801371 17.02861077 -22.9471556 25.15008141 -22.265625 33.25390625 C-21.37648537 37.9288357 -20.12566484 41.25052644 -17.015625 44.87890625 C-13.24540861 46.76401444 -11.26254567 46.48931809 -7.265625 45.25390625 C-2.87416849 41.21851378 -1.49865424 36.50175127 -1.078125 30.640625 C-0.92373718 23.66422518 -1.3259031 16.27936328 -5.265625 10.25390625 C-9.8570338 7.19296705 -13.52141567 7.01357962 -18.078125 10.25390625 Z " fill="#FFFFFF" transform="translate(642.265625,546.74609375)"/>
<path d="M0 0 C4.29 0 8.58 0 13 0 C12.67644531 0.98226562 12.35289062 1.96453125 12.01953125 2.9765625 C10.83627304 7.13836723 10.65647834 11.06735208 10.6875 15.375 C10.68943359 16.49056274 10.68943359 16.49056274 10.69140625 17.62866211 C10.78982684 23.25893497 11.73208368 27.80269177 14 33 C19.97666279 34.35793203 19.97666279 34.35793203 25.4375 32.375 C29.00618176 26.95060372 29.28604812 22.44245347 29.1875 16.125 C29.18685547 15.34769531 29.18621094 14.57039062 29.18554688 13.76953125 C29.15012134 9.08548833 28.77002476 4.62014854 28 0 C30.12750156 0.22773256 32.25208056 0.48290818 34.375 0.75 C35.55835938 0.88921875 36.74171875 1.0284375 37.9609375 1.171875 C41 2 41 2 42.16894531 3.77587891 C45.09738797 11.61316227 44.20392553 24.22312985 41.3125 31.9375 C39.46826287 35.63900774 37.20851185 38.35297772 34 41 C33.09314453 41.76570313 33.09314453 41.76570313 32.16796875 42.546875 C27.04152042 45.98298091 20.15181194 46.51731737 14.1875 45.375 C7.47295314 43.45997772 3.68739682 40.12795819 0.078125 34.29296875 C-2.76723731 28.24141919 -3.34002546 22.56207037 -3.3125 16 C-3.32861328 15.23171875 -3.34472656 14.4634375 -3.36132812 13.671875 C-3.36583067 8.37688511 -2.38414436 4.73054502 0 0 Z " fill="#FFFFFF" transform="translate(572,182)"/>
<path d="M0 0 C6.59739696 3.31052177 9.74893854 9.87542259 12.1875 16.5625 C14.46085183 27.92925913 13.71894355 39.24141505 8.08984375 49.578125 C4.21776066 54.77590433 -1.4634123 57.01437954 -7.5625 58.4375 C-10.92324502 58.56675942 -12.13428141 58.49172525 -14.8125 56.5625 C-15.421875 54.1796875 -15.421875 54.1796875 -15.5625 51.4375 C-15.61921875 50.52742187 -15.6759375 49.61734375 -15.734375 48.6796875 C-15.76015625 47.98101563 -15.7859375 47.28234375 -15.8125 46.5625 C-14.595625 46.665625 -13.37875 46.76875 -12.125 46.875 C-8.69212999 46.85677237 -7.90424608 46.62632336 -4.9375 44.5625 C-0.06716673 37.68673538 0.10882788 29.14213054 -1.23046875 21.03125 C-1.92874938 17.79710814 -2.7657784 14.70266479 -3.8125 11.5625 C-7.40514452 10.36495183 -10.03967474 10.23155042 -13.8125 10.5625 C-18.42365775 13.50851745 -19.39935184 18.55224744 -20.8125 23.5625 C-22.7632829 20.63632565 -23.52763462 18.54205419 -24.4375 15.1875 C-24.69789063 14.25164063 -24.95828125 13.31578125 -25.2265625 12.3515625 C-25.80134456 9.61559989 -26.08354727 7.34430089 -25.8125 4.5625 C-18.81104794 -2.43895206 -9.08563091 -3.36675663 0 0 Z " fill="#FFFFFF" transform="translate(440.8125,826.4375)"/>
<path d="M0 0 C7.09545792 3.97345644 10.12209361 8.25428367 13.125 15.75 C16.05118062 26.83290908 14.78371049 39.06339117 9.3125 49.0625 C6.13535861 52.96584514 2.99736795 56.12587735 -1.875 57.75 C-3.60295352 57.81802967 -5.33335365 57.83495645 -7.0625 57.8125 C-8.650625 57.791875 -10.23875 57.77125 -11.875 57.75 C-12.205 54.45 -12.535 51.15 -12.875 47.75 C-11.6375 47.54375 -10.4 47.3375 -9.125 47.125 C-5.5773527 46.24593695 -4.94456796 45.83205452 -2.4375 42.875 C1.51724282 34.96551435 1.41284856 24.87285007 -1.1875 16.5 C-2.35428879 13.21570563 -2.78153708 12.81230862 -5.875 10.75 C-9.28999591 10.08292452 -9.28999591 10.08292452 -12.875 10.75 C-14.89898194 12.56788456 -16.25759553 14.53184529 -17.875 16.75 C-18.535 16.75 -19.195 16.75 -19.875 16.75 C-20.865 12.13 -21.855 7.51 -22.875 2.75 C-15.61440684 -1.63375436 -8.16093534 -3.21814662 0 0 Z " fill="#FFFFFF" transform="translate(416.875,733.25)"/>
<path d="M0 0 C1.16944656 0.01198425 2.33889313 0.02396851 3.54377747 0.03631592 C4.43449448 0.05172424 5.32521149 0.06713257 6.24291992 0.08300781 C6.26604908 7.36722329 6.28383793 14.65143091 6.29473209 21.93567562 C6.29995967 25.31772594 6.30705503 28.69975121 6.31835938 32.08178711 C6.33126259 35.96630559 6.33614916 39.85081378 6.34057617 43.73535156 C6.34573746 44.95512192 6.35089874 46.17489227 6.35621643 47.43162537 C6.35632973 49.11325523 6.35632973 49.11325523 6.35644531 50.82885742 C6.35866592 51.82147079 6.36088654 52.81408417 6.36317444 53.83677673 C6.24291992 56.08300781 6.24291992 56.08300781 5.24291992 57.08300781 C1.28291992 57.08300781 -2.67708008 57.08300781 -6.75708008 57.08300781 C-7.08708008 42.56300781 -7.41708008 28.04300781 -7.75708008 13.08300781 C-11.38708008 15.39300781 -15.01708008 17.70300781 -18.75708008 20.08300781 C-19.08708008 20.08300781 -19.41708008 20.08300781 -19.75708008 20.08300781 C-20.58335284 15.84571159 -20.8247492 12.29208801 -19.75708008 8.08300781 C-13.87674303 1.86342055 -8.30689198 -0.11045103 0 0 Z " fill="#FFFFFF" transform="translate(680.757080078125,919.9169921875)"/>
<path d="M0 0 C0 18.81 0 37.62 0 57 C-4.29 57 -8.58 57 -13 57 C-13.33 42.48 -13.66 27.96 -14 13 C-19.94 16.465 -19.94 16.465 -26 20 C-27.12028725 12.41651706 -27.12028725 12.41651706 -26 8 C-18.11208304 -0.34298909 -11.55717519 0 0 0 Z " fill="#FFFFFF" transform="translate(618,826)"/>
<path d="M0 0 C0 18.81 0 37.62 0 57 C-4.29 57 -8.58 57 -13 57 C-13.33 42.48 -13.66 27.96 -14 13 C-19.94 16.465 -19.94 16.465 -26 20 C-27.12028725 12.41651706 -27.12028725 12.41651706 -26 8 C-18.11208304 -0.34298909 -11.55717519 0 0 0 Z " fill="#FFFFFF" transform="translate(503,733)"/>
<path d="M0 0 C0 18.81 0 37.62 0 57 C-4.29 57 -8.58 57 -13 57 C-13.33 42.48 -13.66 27.96 -14 13 C-19.94 16.465 -19.94 16.465 -26 20 C-27.12028725 12.41651706 -27.12028725 12.41651706 -26 8 C-18.11208304 -0.34298909 -11.55717519 0 0 0 Z " fill="#FFFFFF" transform="translate(449,545)"/>
<path d="M0 0 C0 18.81 0 37.62 0 57 C-4.29 57 -8.58 57 -13 57 C-13.33 42.48 -13.66 27.96 -14 13 C-19.94 16.465 -19.94 16.465 -26 20 C-27.12028725 12.41651706 -27.12028725 12.41651706 -26 8 C-18.11208304 -0.34298909 -11.55717519 0 0 0 Z " fill="#FFFFFF" transform="translate(503,451)"/>
<path d="M0 0 C0 18.81 0 37.62 0 57 C-4.29 57 -8.58 57 -13 57 C-13.33 42.48 -13.66 27.96 -14 13 C-19.94 16.465 -19.94 16.465 -26 20 C-27.12028725 12.41651706 -27.12028725 12.41651706 -26 8 C-18.11208304 -0.34298909 -11.55717519 0 0 0 Z " fill="#FFFFFF" transform="translate(449,263)"/>
<path d="M0 0 C0 18.81 0 37.62 0 57 C-4.29 57 -8.58 57 -13 57 C-13.33 42.48 -13.66 27.96 -14 13 C-17.63 15.31 -21.26 17.62 -25 20 C-25.33 20 -25.66 20 -26 20 C-26.62348367 16.16903922 -26.85432263 12.80608407 -26 9 C-23.06043527 5.92509619 -19.72150939 4.01020114 -16 2 C-13 0 -13 0 0 0 Z " fill="#FFFFFF" transform="translate(595,920)"/>
<path d="M0 0 C0 18.81 0 37.62 0 57 C-4.29 57 -8.58 57 -13 57 C-13.33 42.48 -13.66 27.96 -14 13 C-17.63 15.31 -21.26 17.62 -25 20 C-25.33 20 -25.66 20 -26 20 C-26.62348367 16.16903922 -26.85432263 12.80608407 -26 9 C-23.06043527 5.92509619 -19.72150939 4.01020114 -16 2 C-13 0 -13 0 0 0 Z " fill="#FFFFFF" transform="translate(595,733)"/>
<path d="M0 0 C0 18.81 0 37.62 0 57 C-4.29 57 -8.58 57 -13 57 C-13.33 42.48 -13.66 27.96 -14 13 C-17.63 15.31 -21.26 17.62 -25 20 C-25.33 20 -25.66 20 -26 20 C-26.62348367 16.16903922 -26.85432263 12.80608407 -26 9 C-23.06043527 5.92509619 -19.72150939 4.01020114 -16 2 C-13 0 -13 0 0 0 Z " fill="#FFFFFF" transform="translate(595,545)"/>
<path d="M0 0 C0 18.81 0 37.62 0 57 C-4.29 57 -8.58 57 -13 57 C-13.33 42.48 -13.66 27.96 -14 13 C-17.63 15.31 -21.26 17.62 -25 20 C-25.33 20 -25.66 20 -26 20 C-26.62348367 16.16903922 -26.85432263 12.80608407 -26 9 C-23.06043527 5.92509619 -19.72150939 4.01020114 -16 2 C-13 0 -13 0 0 0 Z " fill="#FFFFFF" transform="translate(595,451)"/>
<path d="M0 0 C0 18.81 0 37.62 0 57 C-4.29 57 -8.58 57 -13 57 C-13.33 42.48 -13.66 27.96 -14 13 C-17.63 15.31 -21.26 17.62 -25 20 C-25.33 20 -25.66 20 -26 20 C-26.62348367 16.16903922 -26.85432263 12.80608407 -26 9 C-23.06043527 5.92509619 -19.72150939 4.01020114 -16 2 C-13 0 -13 0 0 0 Z " fill="#FFFFFF" transform="translate(395,357)"/>
<path d="M0 0 C0 18.81 0 37.62 0 57 C-4.29 57 -8.58 57 -13 57 C-13.33 42.48 -13.66 27.96 -14 13 C-17.63 15.31 -21.26 17.62 -25 20 C-25.33 20 -25.66 20 -26 20 C-26.62348367 16.16903922 -26.85432263 12.80608407 -26 9 C-23.06043527 5.92509619 -19.72150939 4.01020114 -16 2 C-13 0 -13 0 0 0 Z " fill="#FFFFFF" transform="translate(541,263)"/>
<path d="M0 0 C0 18.81 0 37.62 0 57 C-3.96 57 -7.92 57 -12 57 C-12 42.15 -12 27.3 -12 12 C-16.29 14.64 -20.58 17.28 -25 20 C-25.33 20 -25.66 20 -26 20 C-26.62348367 16.16903922 -26.85432263 12.80608407 -26 9 C-23.06043527 5.92509619 -19.72150939 4.01020114 -16 2 C-13 0 -13 0 0 0 Z " fill="#FFFFFF" transform="translate(487,826)"/>
<path d="M0 0 C0 18.81 0 37.62 0 57 C-3.96 57 -7.92 57 -12 57 C-12 42.15 -12 27.3 -12 12 C-16.29 14.64 -20.58 17.28 -25 20 C-25.33 20 -25.66 20 -26 20 C-26.62348367 16.16903922 -26.85432263 12.80608407 -26 9 C-23.06043527 5.92509619 -19.72150939 4.01020114 -16 2 C-13 0 -13 0 0 0 Z " fill="#FFFFFF" transform="translate(633,733)"/>
<path d="M0 0 C0 18.81 0 37.62 0 57 C-3.96 57 -7.92 57 -12 57 C-12 42.15 -12 27.3 -12 12 C-16.29 14.64 -20.58 17.28 -25 20 C-25.33 20 -25.66 20 -26 20 C-26.62348367 16.16903922 -26.85432263 12.80608407 -26 9 C-23.06043527 5.92509619 -19.72150939 4.01020114 -16 2 C-13 0 -13 0 0 0 Z " fill="#FFFFFF" transform="translate(487,639)"/>
<path d="M0 0 C0 18.81 0 37.62 0 57 C-3.96 57 -7.92 57 -12 57 C-12 42.15 -12 27.3 -12 12 C-16.29 14.64 -20.58 17.28 -25 20 C-25.33 20 -25.66 20 -26 20 C-26.62348367 16.16903922 -26.85432263 12.80608407 -26 9 C-23.06043527 5.92509619 -19.72150939 4.01020114 -16 2 C-13 0 -13 0 0 0 Z " fill="#FFFFFF" transform="translate(372,451)"/>
<path d="M0 0 C0 18.81 0 37.62 0 57 C-3.96 57 -7.92 57 -12 57 C-12 42.15 -12 27.3 -12 12 C-16.29 14.64 -20.58 17.28 -25 20 C-25.33 20 -25.66 20 -26 20 C-26.62348367 16.16903922 -26.85432263 12.80608407 -26 9 C-23.06043527 5.92509619 -19.72150939 4.01020114 -16 2 C-13 0 -13 0 0 0 Z " fill="#FFFFFF" transform="translate(633,357)"/>
<path d="M0 0 C0 18.81 0 37.62 0 57 C-3.96 57 -7.92 57 -12 57 C-12 42.15 -12 27.3 -12 12 C-16.29 14.64 -20.58 17.28 -25 20 C-25.33 20 -25.66 20 -26 20 C-26.62348367 16.16903922 -26.85432263 12.80608407 -26 9 C-23.06043527 5.92509619 -19.72150939 4.01020114 -16 2 C-13 0 -13 0 0 0 Z " fill="#FFFFFF" transform="translate(487,357)"/>
<path d="M0 0 C0 18.81 0 37.62 0 57 C-3.96 57 -7.92 57 -12 57 C-12 42.15 -12 27.3 -12 12 C-16.29 14.64 -20.58 17.28 -25 20 C-25.33 20 -25.66 20 -26 20 C-26.62348367 16.16903922 -26.85432263 12.80608407 -26 9 C-23.06043527 5.92509619 -19.72150939 4.01020114 -16 2 C-13 0 -13 0 0 0 Z " fill="#FFFFFF" transform="translate(633,263)"/>
<path d="M0 0 C0 18.81 0 37.62 0 57 C-3.96 57 -7.92 57 -12 57 C-12 42.15 -12 27.3 -12 12 C-16.29 14.64 -20.58 17.28 -25 20 C-25.33 20 -25.66 20 -26 20 C-26.93054708 16.04886756 -27.13702672 12.92425151 -26 9 C-23.89510579 6.86460007 -22.20728898 5.41843185 -19.75 3.8125 C-19.18394043 3.42650635 -18.61788086 3.0405127 -18.03466797 2.64282227 C-11.64540143 -1.12194083 -8.35588575 0 0 0 Z " fill="#FFFFFF" transform="translate(579,826)"/>
<path d="M0 0 C0 18.81 0 37.62 0 57 C-3.96 57 -7.92 57 -12 57 C-12 42.15 -12 27.3 -12 12 C-15.63 14.31 -19.26 16.62 -23 19 C-23.99 19 -24.98 19 -26 19 C-26.95510711 15.36907692 -27.1276604 12.60751535 -26 9 C-23.90644732 6.92768626 -22.16665381 5.46470004 -19.75 3.875 C-18.90091064 3.29020874 -18.90091064 3.29020874 -18.03466797 2.69360352 C-11.63242946 -1.13436904 -8.42837881 0 0 0 Z " fill="#FFFFFF" transform="translate(464,733)"/>
<path d="M0 0 C0 18.81 0 37.62 0 57 C-3.96 57 -7.92 57 -12 57 C-12.33 42.48 -12.66 27.96 -13 13 C-17.95 15.97 -17.95 15.97 -23 19 C-23.99 19 -24.98 19 -26 19 C-26.95510711 15.36907692 -27.1276604 12.60751535 -26 9 C-23.90644732 6.92768626 -22.16665381 5.46470004 -19.75 3.875 C-18.90091064 3.29020874 -18.90091064 3.29020874 -18.03466797 2.69360352 C-11.63242946 -1.13436904 -8.42837881 0 0 0 Z " fill="#FFFFFF" transform="translate(525,639)"/>
<path d="M0 0 C0 18.81 0 37.62 0 57 C-3.96 57 -7.92 57 -12 57 C-12 42.15 -12 27.3 -12 12 C-15.63 14.31 -19.26 16.62 -23 19 C-23.99 19 -24.98 19 -26 19 C-26.95510711 15.36907692 -27.1276604 12.60751535 -26 9 C-23.90644732 6.92768626 -22.16665381 5.46470004 -19.75 3.875 C-18.90091064 3.29020874 -18.90091064 3.29020874 -18.03466797 2.69360352 C-11.63242946 -1.13436904 -8.42837881 0 0 0 Z " fill="#FFFFFF" transform="translate(464,451)"/>
<path d="M0 0 C0 18.81 0 37.62 0 57 C-3.96 57 -7.92 57 -12 57 C-12.33 42.48 -12.66 27.96 -13 13 C-18.94 16.465 -18.94 16.465 -25 20 C-26.12226353 12.4031392 -26.12226353 12.4031392 -25 8 C-17.34278612 0.0161751 -11.10492666 0 0 0 Z " fill="#FFFFFF" transform="translate(671,357)"/>
<path d="M0 0 C0 18.81 0 37.62 0 57 C-3.96 57 -7.92 57 -12 57 C-12.33 42.48 -12.66 27.96 -13 13 C-18.94 16.465 -18.94 16.465 -25 20 C-26.12226353 12.4031392 -26.12226353 12.4031392 -25 8 C-17.34278612 0.0161751 -11.10492666 0 0 0 Z " fill="#FFFFFF" transform="translate(671,263)"/>
<path d="M0 0 C5.27640886 1.39669646 8.00355412 4.65644877 11 9 C15.6580229 18.15542433 16.04464574 29.44773379 13.85546875 39.39453125 C11.90201665 45.34408628 8.89201737 50.23998385 4.3125 54.5 C-1.54574525 57.1527903 -7.35899864 58.62667829 -13.6875 57.125 C-14.450625 56.75375 -15.21375 56.3825 -16 56 C-15.67 52.37 -15.34 48.74 -15 45 C-13.5975 45.2475 -12.195 45.495 -10.75 45.75 C-6.91922371 46.21065097 -6.91922371 46.21065097 -3.5625 44.375 C1.83135683 36.17633763 1.5988493 26.68319831 -0.31640625 17.37109375 C-0.93983274 14.82740995 -0.93983274 14.82740995 -2.6875 12.1875 C-4 10 -4 10 -3.875 6.9375 C-3.00106206 4.00356549 -2.01266065 2.27518161 0 0 Z " fill="#FFFFFF" transform="translate(347,358)"/>
<path d="M0 0 C3 1 3 1 3.9140625 2.6796875 C7.63086488 14.1568465 8.36743122 26.23537232 3.1875 37.4375 C0.03570395 43.04327748 -3.99809752 46.64631275 -10 49 C-15.97440469 50.27323379 -21.25957138 50.30642222 -27 48 C-29.57409684 46.21611304 -31.812429 44.23680893 -34 42 C-33.38801624 38.56049636 -32.07941153 36.48435515 -29.9375 33.75 C-29.38964844 33.04359375 -28.84179688 32.3371875 -28.27734375 31.609375 C-27.85582031 31.07828125 -27.43429687 30.5471875 -27 30 C-23 34.75 -23 34.75 -23 37 C-17.02333721 38.35793203 -17.02333721 38.35793203 -11.5625 36.375 C-8.86552933 32.27560458 -7.75637692 28.84752726 -7.83203125 23.9453125 C-7.82494141 23.00042969 -7.81785156 22.05554688 -7.81054688 21.08203125 C-7.81184387 19.11837949 -7.8325274 17.15464034 -7.87304688 15.19140625 C-7.79549018 9.76243793 -7.37832464 6.73676174 -3.44921875 2.8046875 C-2.32298506 1.84160443 -1.18052722 0.89570465 0 0 Z " fill="#FFFFFF" transform="translate(409,272)"/>
<path d="M0 0 C0.61993095 10.02221696 -0.50414405 17.92363383 -6.875 25.9375 C-11.32865802 30.65771112 -16.1722017 32.54436771 -22.5625 33.0625 C-28.52919263 32.90950788 -33.46847812 31.30817494 -38 27.4375 C-38.66 26.633125 -39.32 25.82875 -40 25 C-40.66 24.34 -41.32 23.68 -42 23 C-42 22.01 -42 21.02 -42 20 C-38.7 18.35 -35.4 16.7 -32 15 C-31.484375 15.804375 -30.96875 16.60875 -30.4375 17.4375 C-27.32140052 20.71339945 -25.44579787 20.8412215 -21 21 C-18.8749845 20.86208343 -18.8749845 20.86208343 -17 20 C-15.92804509 18.15948331 -15.92804509 18.15948331 -15.375 15.875 C-15.1275 15.06417969 -14.88 14.25335938 -14.625 13.41796875 C-13.90619749 10.78734766 -13.90619749 10.78734766 -13.375 7.1875 C-11.79024551 3.51375095 -11.06451039 3.18055327 -7.5625 1.5625 C-4.75930543 0.458771 -3.04529026 0 0 0 Z " fill="#FFFFFF" transform="translate(523,195)"/>
<path d="M0 0 C2.62202981 3.93304472 2.25148527 7.26625069 2.1953125 11.82421875 C2.1924826 12.68561966 2.18965271 13.54702057 2.18673706 14.43452454 C2.17554237 17.18565769 2.15043921 19.93646525 2.125 22.6875 C2.11496927 24.55272967 2.10584359 26.41796445 2.09765625 28.28320312 C2.07560538 32.8555942 2.04108049 37.42774189 2 42 C-2.29 42 -6.58 42 -11 42 C-11 29.46 -11 16.92 -11 4 C-8.03 3.01 -5.06 2.02 -2 1 C-1.34 0.67 -0.68 0.34 0 0 Z " fill="#FFFFFF" transform="translate(555,184)"/>
<path d="M0 0 C1.44319692 0.90767102 2.87934106 1.82656106 4.3125 2.75 C5.11300781 3.26046875 5.91351562 3.7709375 6.73828125 4.296875 C9.09988852 6.0752183 10.44472886 7.49391771 12 10 C12.34057617 12.47363281 12.34057617 12.47363281 12.29296875 15.203125 C12.28330078 16.1828125 12.27363281 17.1625 12.26367188 18.171875 C12.23853516 19.18765625 12.21339844 20.2034375 12.1875 21.25 C12.17396484 22.28125 12.16042969 23.3125 12.14648438 24.375 C12.11118034 26.91689049 12.05737473 29.4585119 12 32 C7.71 32 3.42 32 -1 32 C-1.02465504 27.60343827 -1.04283842 23.2069128 -1.05493164 18.81030273 C-1.05997121 17.31355082 -1.06680287 15.81680384 -1.07543945 14.32006836 C-1.08752159 12.17300193 -1.09323191 10.02600038 -1.09765625 7.87890625 C-1.10289307 6.5854126 -1.10812988 5.29191895 -1.11352539 3.95922852 C-1 1 -1 1 0 0 Z " fill="#FFFFFF" transform="translate(637,194)"/>
</svg>
